<?xml version="1.0" encoding="UTF-8"?><svg id="Layer_1" xmlns="http://www.w3.org/2000/svg" width="62" height="62" xmlns:xlink="http://www.w3.org/1999/xlink" viewBox="0 0 62 62"><defs><linearGradient id="linear-gradient" x1="31" y1="55.9453" x2="31" y2="6.0544" gradientUnits="userSpaceOnUse"><stop offset=".5" stop-color="#212121"/><stop offset="1" stop-color="#fff" stop-opacity=".5"/></linearGradient></defs><path d="M18.1655,5.0547h25.6704c7.2353,0,13.1094,5.8741,13.1094,13.1094v25.6719c0,7.2353-5.8741,13.1094-13.1094,13.1094h-25.6719c-7.2353,0-13.1094-5.8741-13.1094-13.1094v-25.6704c0-7.2361,5.8748-13.1108,13.1108-13.1108Z" style="opacity:.05; stroke-width:0px;"/><path d="M18.1655,5.5547h25.6704c6.9593,0,12.6094,5.6501,12.6094,12.6094v25.6719c0,6.9593-5.6501,12.6094-12.6094,12.6094h-25.6719c-6.9593,0-12.6094-5.6501-12.6094-12.6094v-25.6704c0-6.9601,5.6507-12.6108,12.6108-12.6108Z" style="opacity:.07; stroke-width:0px;"/><path d="M6.0547,18.1638v25.6719c0,6.9628,4.2383,12.1097,12.1109,12.1094l25.6703.0003c7.8711-.0003,12.1094-5.1468,12.1094-12.1097v-25.6719c0-6.9629-4.2383-12.1091-12.1094-12.1094h-25.6703c-7.8727,0-12.1109,5.1464-12.1109,12.1094Z" style="fill:#212121; stroke-width:0px;"/><path d="M43.8359,6.0544h-25.6703c-7.8727,0-12.111,5.1464-12.111,12.1094v25.6719c0,6.9628,4.2383,12.1096,12.111,12.1094l25.6703.0002c7.8711-.0002,12.1094-5.1469,12.1094-12.1096v-25.6719c0-6.963-4.2383-12.1091-12.1094-12.1094ZM55.4453,43.8359c0,7.1611-4.4482,11.6094-11.6094,11.6094h-25.6704c-7.1616,0-11.6108-4.4482-11.6108-11.6094v-25.6719c0-7.1611,4.4492-11.6094,11.6108-11.6094h25.6704c7.1611,0,11.6094,4.4482,11.6094,11.6094v25.6719Z" style="fill:url(#linear-gradient); opacity:.25; stroke-width:0px;"/><path d="M14.7144,24.2861c-1.4966,0-2.7144-1.0254-2.7144-2.2861v-2.5713c0-1.2607,1.2178-2.2861,2.7144-2.2861h32.5713c1.4966,0,2.7144,1.0254,2.7144,2.2861v2.5713c0,1.2607-1.2178,2.2861-2.7144,2.2861H14.7144Z" style="opacity:.05; stroke-width:0px;"/><path d="M14.7144,23.7861c-1.2212,0-2.2144-.8008-2.2144-1.7861v-2.5713c0-.9854.9932-1.7861,2.2144-1.7861h32.5713c1.2212,0,2.2144.8008,2.2144,1.7861v2.5713c0,.9854-.9932,1.7861-2.2144,1.7861H14.7144Z" style="opacity:.07; stroke-width:0px;"/><path d="M47.2857,23.2857H14.7143c-.9463,0-1.7143-.576-1.7143-1.2857v-2.5714c0-.7097.768-1.2857,1.7143-1.2857h32.5714c.9463,0,1.7143.576,1.7143,1.2857v2.5714c0,.7097-.768,1.2857-1.7143,1.2857Z" style="fill:#f5f5f5; stroke-width:0px;"/><path d="M14.2856,27.4287h2.5723c1.2612,0,2.2852,1.0239,2.2852,2.2852v2.5713c0,1.2618-1.0244,2.2861-2.2861,2.2861h-2.5718c-1.2612,0-2.2852-1.0239-2.2852-2.2852v-2.5718c0-1.2615,1.0242-2.2856,2.2856-2.2856Z" style="opacity:.05; stroke-width:0px;"/><path d="M14.2856,27.9287h2.5723c.9853,0,1.7852.7999,1.7852,1.7852v2.5713c0,.9858-.8003,1.7861-1.7861,1.7861h-2.5718c-.9853,0-1.7852-.7999-1.7852-1.7852v-2.5718c0-.9855.8001-1.7856,1.7856-1.7856Z" style="opacity:.07; stroke-width:0px;"/><path d="M16.8571,33.5714h-2.5714c-.7097,0-1.2857-.576-1.2857-1.2857v-2.5714c0-.7097.576-1.2857,1.2857-1.2857h2.5714c.7097,0,1.2857.576,1.2857,1.2857v2.5714c0,.7097-.576,1.2857-1.2857,1.2857Z" style="fill:#f5f5f5; stroke-width:0px;"/><path d="M23.2856,27.4287h24.4292c1.2612,0,2.2852,1.0239,2.2852,2.2852v2.5718c0,1.2615-1.0242,2.2856-2.2856,2.2856h-24.4292c-1.2612,0-2.2852-1.0239-2.2852-2.2852v-2.5718c0-1.2615,1.0242-2.2856,2.2856-2.2856Z" style="opacity:.05; stroke-width:0px;"/><path d="M23.2856,27.9287h24.4292c.9853,0,1.7852.7999,1.7852,1.7852v2.5718c0,.9855-.8001,1.7856-1.7856,1.7856h-24.4292c-.9853,0-1.7852-.7999-1.7852-1.7852v-2.5718c0-.9855.8001-1.7856,1.7856-1.7856Z" style="opacity:.07; stroke-width:0px;"/><path d="M47.7143,33.5714h-24.4286c-.7097,0-1.2857-.576-1.2857-1.2857v-2.5714c0-.7097.576-1.2857,1.2857-1.2857h24.4286c.7097,0,1.2857.576,1.2857,1.2857v2.5714c0,.7097-.576,1.2857-1.2857,1.2857Z" style="fill:#f5f5f5; stroke-width:0px;"/><rect x="12" y="37.7139" width="7.1431" height="7.1436" rx="2.2856" ry="2.2856" style="opacity:.05; stroke-width:0px;"/><rect x="12.5" y="38.2139" width="6.1431" height="6.1436" rx="1.7856" ry="1.7856" style="opacity:.07; stroke-width:0px;"/><path d="M16.8571,43.8571h-2.5714c-.7097,0-1.2857-.576-1.2857-1.2857v-2.5714c0-.7097.576-1.2857,1.2857-1.2857h2.5714c.7097,0,1.2857.576,1.2857,1.2857v2.5714c0,.7097-.576,1.2857-1.2857,1.2857Z" style="fill:#f5f5f5; stroke-width:0px;"/><rect x="21" y="37.7139" width="29" height="7.1436" rx="2.2856" ry="2.2856" style="opacity:.05; stroke-width:0px;"/><rect x="21.5" y="38.2139" width="28" height="6.1436" rx="1.7856" ry="1.7856" style="opacity:.07; stroke-width:0px;"/><path d="M47.7143,43.8571h-24.4286c-.7097,0-1.2857-.576-1.2857-1.2857v-2.5714c0-.7097.576-1.2857,1.2857-1.2857h24.4286c.7097,0,1.2857.576,1.2857,1.2857v2.5714c0,.7097-.576,1.2857-1.2857,1.2857Z" style="fill:#f5f5f5; stroke-width:0px;"/></svg>