<?xml version="1.0" encoding="UTF-8"?><svg id="Layer_3" xmlns="http://www.w3.org/2000/svg" width="48" height="48" xmlns:xlink="http://www.w3.org/1999/xlink" viewBox="0 0 48 48"><defs><linearGradient id="linear-gradient" x1="20" y1="43.9059" x2="20" y2="15.9698" gradientTransform="translate(0 50) scale(1 -1)" gradientUnits="userSpaceOnUse"><stop offset="0" stop-color="#5a0da9"/><stop offset="1" stop-color="#52168c"/></linearGradient><linearGradient id="linear-gradient-2" x1="24" y1="39.9059" x2="24" y2="11.9698" gradientTransform="translate(0 50) scale(1 -1)" gradientUnits="userSpaceOnUse"><stop offset="0" stop-color="#701ae0"/><stop offset="1" stop-color="#6908d8"/></linearGradient><linearGradient id="linear-gradient-3" x1="28" y1="35.9059" x2="28" y2="7.9698" gradientTransform="translate(0 50) scale(1 -1)" gradientUnits="userSpaceOnUse"><stop offset="0" stop-color="#7b33ef"/><stop offset="1" stop-color="#8d4de4"/></linearGradient><linearGradient id="linear-gradient-4" x1="-435.4715" y1="2051.4908" x2="-435.4715" y2="2045.1792" gradientTransform="translate(-2005 479) rotate(90) scale(1 -1)" gradientUnits="userSpaceOnUse"><stop offset="0" stop-color="#dedede"/><stop offset="1" stop-color="#d6d6d6"/></linearGradient><radialGradient id="radial-gradient" cx="45.4764" cy="41.8063" fx="45.4764" fy="41.8063" r="3.1772" gradientUnits="userSpaceOnUse"><stop offset="0" stop-color="#fff" stop-opacity=".8"/><stop offset="1" stop-color="#fff" stop-opacity=".4"/></radialGradient></defs><path d="M32,34H8c-1.1,0-2-.9-2-2V8c0-1.1.9-2,2-2h24c1.1,0,2,.9,2,2v24c0,1.1-.9,2-2,2Z" style="fill:url(#linear-gradient); stroke-width:0px;"/><path d="M36,38H12c-1.1,0-2-.9-2-2V12c0-1.1.9-2,2-2h24c1.1,0,2,.9,2,2v24c0,1.1-.9,2-2,2Z" style="fill:url(#linear-gradient-2); stroke-width:0px;"/><path d="M40,42h-24c-1.1,0-2-.9-2-2v-24c0-1.1.9-2,2-2h24c1.1,0,2,.9,2,2v24c0,1.1-.9,2-2,2Z" style="fill:url(#linear-gradient-3); stroke-width:0px;"/><path d="M30.094,25.251l-4.97-1.251c-.679-.171-1.295.445-1.124,1.124l1.252,4.97,11.906,11.906h2.842c1.1,0,2-.9,2-2v-2.843l-11.906-11.906Z" style="isolation:isolate; opacity:.05; stroke-width:0px;"/><path d="M29.838,25.702l-4.263-1.073c-.571-.144-1.09.374-.946.946l1.074,4.264,12.162,12.161h2.135c1.1,0,2-.9,2-2v-2.136l-12.162-12.162Z" style="isolation:isolate; opacity:.07; stroke-width:0px;"/><path d="M45.538,47.748l2.209-2.21c.337-.336.337-.883,0-1.22l-1.041-1.04-3.428,3.428,1.04,1.041c.337.337.883.337,1.22.001" style="fill:#6c31e3; stroke-width:0px;"/><path d="M29.582,26.153l-4.582-1.153,1.154,4.582,3.975.481-.547-3.91Z" style="fill:#f0f0f0; stroke-width:0px;"/><path d="M40.355,43.783l-14.2-14.2,3.429-3.429,14.2,14.2-3.429,3.429Z" style="fill:#262626; stroke-width:0px;"/><path d="M43.783,40.351l2.926,2.924-3.428,3.431-2.926-2.924,3.428-3.431Z" style="fill:url(#linear-gradient-4); stroke-width:0px;"/><path d="M27.317,25.584l-2.317-.584.584,2.316,1.733-1.732Z" style="fill:#262626; stroke-width:0px;"/><path d="M43.783,40.351l2.926,2.924-3.428,3.431-2.926-2.924,3.428-3.431Z" style="fill:url(#radial-gradient); stroke-width:0px;"/></svg>